<svg width="28" height="22" viewBox="0 0 28 22" fill="none" xmlns="http://www.w3.org/2000/svg">
<path d="M17.5 6H24.5C24.776 6 25 5.776 25 5.5C25 5.224 24.776 5 24.5 5H17.5C17.224 5 17 5.224 17 5.5C17 5.776 17.224 6 17.5 6Z" fill="#29293D"/>
<path d="M17.5 9H24.5C24.776 9 25 8.776 25 8.5C25 8.224 24.776 8 24.5 8H17.5C17.224 8 17 8.224 17 8.5C17 8.776 17.224 9 17.5 9Z" fill="#29293D"/>
<path d="M17.5 12H24.5C24.776 12 25 11.776 25 11.5C25 11.224 24.776 11 24.5 11H17.5C17.224 11 17 11.224 17 11.5C17 11.776 17.224 12 17.5 12Z" fill="#29293D"/>
<path d="M17.5 15H24.5C24.776 15 25 14.776 25 14.5C25 14.224 24.776 14 24.5 14H17.5C17.224 14 17 14.224 17 14.5C17 14.776 17.224 15 17.5 15Z" fill="#29293D"/>
<path d="M26.5 0H16.5C16.224 0 16 0.224 16 0.5C16 0.776 16.224 1 16.5 1H26.5C26.776 1 27 1.225 27 1.5V20.5C27 20.775 26.776 21 26.5 21H1.5C1.224 21 1 20.775 1 20.5V1.5C1 1.225 1.224 1 1.5 1H13V18.5C13 18.776 13.224 19 13.5 19C13.776 19 14 18.776 14 18.5V0.5C14 0.224 13.776 0 13.5 0H1.5C0.673 0 0 0.673 0 1.5V20.5C0 21.327 0.673 22 1.5 22H26.5C27.327 22 28 21.327 28 20.5V1.5C28 0.673 27.327 0 26.5 0Z" fill="#29293D"/>
<path d="M17.5 6H24.5C24.776 6 25 5.776 25 5.5C25 5.224 24.776 5 24.5 5H17.5C17.224 5 17 5.224 17 5.5C17 5.776 17.224 6 17.5 6Z" fill="#29293D"/>
<path d="M17.5 9H24.5C24.776 9 25 8.776 25 8.5C25 8.224 24.776 8 24.5 8H17.5C17.224 8 17 8.224 17 8.5C17 8.776 17.224 9 17.5 9Z" fill="#29293D"/>
<path d="M17.5 12H24.5C24.776 12 25 11.776 25 11.5C25 11.224 24.776 11 24.5 11H17.5C17.224 11 17 11.224 17 11.5C17 11.776 17.224 12 17.5 12Z" fill="#29293D"/>
<path d="M17.5 15H24.5C24.776 15 25 14.776 25 14.5C25 14.224 24.776 14 24.5 14H17.5C17.224 14 17 14.224 17 14.5C17 14.776 17.224 15 17.5 15Z" fill="#29293D"/>
<path d="M26.5 0H16.5C16.224 0 16 0.224 16 0.5C16 0.776 16.224 1 16.5 1H26.5C26.776 1 27 1.225 27 1.5V20.5C27 20.775 26.776 21 26.5 21H1.5C1.224 21 1 20.775 1 20.5V1.5C1 1.225 1.224 1 1.5 1H13V18.5C13 18.776 13.224 19 13.5 19C13.776 19 14 18.776 14 18.5V0.5C14 0.224 13.776 0 13.5 0H1.5C0.673 0 0 0.673 0 1.5V20.5C0 21.327 0.673 22 1.5 22H26.5C27.327 22 28 21.327 28 20.5V1.5C28 0.673 27.327 0 26.5 0Z" fill="#29293D"/>
</svg>
