<svg width="31" height="33" viewBox="0 0 31 33" fill="none" xmlns="http://www.w3.org/2000/svg">
<path fill-rule="evenodd" clip-rule="evenodd" d="M15.2673 10.5C12.1607 10.5 9.64233 13.0184 9.64233 16.125C9.64233 19.2317 12.1607 21.75 15.2673 21.75C18.374 21.75 20.8923 19.2317 20.8923 16.125C20.8923 13.0184 18.374 10.5 15.2673 10.5ZM11.8923 16.125C11.8923 14.2611 13.4034 12.75 15.2673 12.75C17.1312 12.75 18.6423 14.2611 18.6423 16.125C18.6423 17.9889 17.1312 19.5 15.2673 19.5C13.4034 19.5 11.8923 17.9889 11.8923 16.125Z" fill="#29293D"/>
<path fill-rule="evenodd" clip-rule="evenodd" d="M15.2294 6.37167e-07C14.5628 -1.43628e-05 14.0061 -1.44336e-05 13.5492 0.0311556C13.0736 0.0636156 12.6243 0.133576 12.1888 0.313996C11.178 0.732661 10.375 1.53569 9.95632 2.54643C9.73837 3.07263 9.67934 3.62718 9.6568 4.22994C9.63868 4.71449 9.39415 5.11877 9.03326 5.32712C8.67239 5.53547 8.20001 5.5451 7.77133 5.31852C7.23805 5.03666 6.72827 4.81049 6.16358 4.73615C5.07893 4.59335 3.98197 4.88729 3.11402 5.55329C2.73998 5.8403 2.45474 6.1944 2.18882 6.5901C1.93336 6.97022 1.65509 7.45223 1.32175 8.02961L1.28387 8.09522C0.950511 8.67258 0.672231 9.15456 0.470766 9.56585C0.261051 9.99401 0.096996 10.4181 0.035451 10.8855C-0.107349 11.9702 0.186591 13.0671 0.852576 13.9352C1.19926 14.3868 1.64993 14.7153 2.16059 15.0361C2.57126 15.2942 2.79916 15.7081 2.79913 16.125C2.79911 16.5417 2.57122 16.9557 2.16059 17.2137C1.64987 17.5345 1.19915 17.8631 0.852441 18.3148C0.186441 19.1828 -0.107484 20.2797 0.035301 21.3643C0.096846 21.8317 0.260901 22.2559 0.470616 22.684C0.672081 23.0954 0.950361 23.5773 1.28371 24.1546L1.3216 24.2204C1.65494 24.7977 1.93321 25.2797 2.18867 25.6598C2.45459 26.0555 2.73983 26.4096 3.11387 26.6966C3.98182 27.3626 5.07878 27.6566 6.16343 27.5138C6.72809 27.4394 7.23784 27.2133 7.77109 26.9314C8.19983 26.7048 8.67227 26.7144 9.03319 26.9229C9.39412 27.1313 9.63868 27.5355 9.6568 28.0201C9.67934 28.6228 9.73838 29.1774 9.95632 29.7036C10.375 30.7143 11.178 31.5174 12.1888 31.9361C12.6243 32.1165 13.0736 32.1864 13.5492 32.2188C14.0061 32.25 14.5628 32.25 15.2294 32.25H15.3051C15.9719 32.25 16.5284 32.25 16.9854 32.2188C17.4611 32.1864 17.9103 32.1165 18.3459 31.9361C19.3566 31.5174 20.1597 30.7143 20.5784 29.7036C20.7963 29.1774 20.8553 28.6229 20.8778 28.02C20.8959 27.5355 21.1404 27.1313 21.5013 26.9227C21.8622 26.7144 22.3347 26.7048 22.7634 26.9313C23.2967 27.2132 23.8064 27.4394 24.3711 27.5136C25.4558 27.6564 26.5527 27.3626 27.4206 26.6966C27.7947 26.4095 28.0799 26.0555 28.3458 25.6598C28.6013 25.2797 28.8795 24.7977 29.2128 24.2204L29.2508 24.1546C29.5841 23.5773 29.8625 23.0952 30.0639 22.6839C30.2736 22.2558 30.4376 21.8317 30.4992 21.3643C30.642 20.2796 30.348 19.1826 29.682 18.3147C29.3354 17.8629 28.8846 17.5345 28.374 17.2137C27.9633 16.9557 27.7355 16.5417 27.7355 16.1248C27.7355 15.7081 27.9633 15.2943 28.3739 15.0363C28.8848 14.7155 29.3355 14.3871 29.6822 13.9352C30.3482 13.0672 30.6422 11.9703 30.4994 10.8856C30.4377 10.4182 30.2738 9.99411 30.0641 9.56595C29.8626 9.1547 29.5844 8.67275 29.2509 8.09543L29.2131 8.02977C28.8797 7.45238 28.6014 6.97032 28.346 6.59021C28.08 6.19451 27.7949 5.8404 27.4208 5.55338C26.5529 4.88739 25.4559 4.59345 24.3711 4.73625C23.8065 4.81059 23.2968 5.03673 22.7636 5.31858C22.3349 5.54519 21.8624 5.53554 21.5015 5.32716C21.1406 5.1188 20.8959 4.71446 20.8778 4.22987C20.8553 3.62712 20.7963 3.0726 20.5784 2.54643C20.1597 1.53569 19.3566 0.732661 18.3459 0.313996C17.9103 0.133576 17.4611 0.0636156 16.9854 0.0311556C16.5284 -1.44336e-05 15.9719 -1.43628e-05 15.3051 6.37167e-07H15.2294ZM13.0497 2.39273C13.1655 2.34479 13.3413 2.30058 13.7024 2.27594C14.0736 2.25062 14.553 2.25 15.2673 2.25C15.9816 2.25 16.461 2.25062 16.8321 2.27594C17.1933 2.30058 17.3691 2.34479 17.4848 2.39273C17.9442 2.58303 18.3093 2.94804 18.4995 3.40748C18.5597 3.55239 18.6093 3.77831 18.6294 4.31396C18.6738 5.50253 19.2873 6.64694 20.3765 7.27572C21.4655 7.90452 22.7634 7.8636 23.8149 7.30782C24.2888 7.05735 24.5094 6.98748 24.6648 6.96701C25.1579 6.9021 25.6565 7.03571 26.051 7.33842C26.1504 7.41468 26.2766 7.54484 26.4785 7.84524C26.6861 8.15405 26.9262 8.5689 27.2834 9.1875C27.6405 9.80612 27.8798 10.2216 28.0434 10.5557C28.2026 10.8807 28.2522 11.0551 28.2686 11.1793C28.3335 11.6723 28.1999 12.171 27.8972 12.5655C27.8016 12.6899 27.6309 12.846 27.1769 13.1311C26.1699 13.764 25.4856 14.8674 25.4855 16.1248C25.4855 17.3825 26.1698 18.486 27.1769 19.1189C27.6308 19.404 27.8015 19.56 27.897 19.6845C28.1997 20.079 28.3334 20.5776 28.2684 21.0707C28.2521 21.1949 28.2024 21.3692 28.0433 21.6942C27.8796 22.0282 27.6404 22.4438 27.2832 23.0624C26.9261 23.681 26.6859 24.0958 26.4783 24.4047C26.2764 24.705 26.1503 24.8352 26.0508 24.9114C25.6563 25.2142 25.1577 25.3478 24.6647 25.283C24.5093 25.2624 24.2886 25.1925 23.8148 24.9422C22.7633 24.3862 21.4653 24.3454 20.3762 24.9743C19.2873 25.6031 18.6738 26.7474 18.6294 27.936C18.6093 28.4717 18.5597 28.6975 18.4995 28.8426C18.3093 29.3019 17.9442 29.667 17.4848 29.8573C17.3691 29.9052 17.1933 29.9495 16.8321 29.9741C16.461 29.9994 15.9816 30 15.2673 30C14.553 30 14.0736 29.9994 13.7024 29.9741C13.3413 29.9495 13.1655 29.9052 13.0497 29.8573C12.5904 29.667 12.2254 29.3019 12.035 28.8426C11.975 28.6975 11.9253 28.4717 11.9052 27.936C11.8608 26.7476 11.2473 25.6031 10.1582 24.9743C9.0691 24.3454 7.77127 24.3864 6.71971 24.9422C6.24581 25.1926 6.02528 25.2626 5.86976 25.283C5.37673 25.3479 4.87811 25.2143 4.4836 24.9116C4.38421 24.8354 4.25801 24.7052 4.05613 24.4047C3.8486 24.096 3.60838 23.6811 3.25123 23.0625C2.89406 22.4439 2.6549 22.0284 2.49124 21.6944C2.33203 21.3693 2.28241 21.1949 2.26606 21.0707C2.20115 20.5776 2.33476 20.079 2.63749 19.6845C2.73298 19.5602 2.90375 19.404 3.35764 19.1189C4.36471 18.4862 5.04907 17.3826 5.04913 16.1252C5.0492 14.8674 4.36481 13.7638 3.35765 13.131C2.90387 12.8458 2.73311 12.6898 2.63762 12.5654C2.33491 12.1709 2.2013 11.6722 2.26621 11.1792C2.28256 11.055 2.33218 10.8806 2.49139 10.5556C2.65505 10.2215 2.89421 9.80601 3.25136 9.1874C3.60853 8.5688 3.84874 8.15394 4.05628 7.84514C4.25816 7.54475 4.38436 7.41458 4.48373 7.33833C4.87826 7.0356 5.37688 6.902 5.8699 6.9669C6.02543 6.98738 6.24598 7.05725 6.71993 7.30776C7.77143 7.86353 9.0692 7.90443 10.1582 7.27568C11.2473 6.64692 11.8608 5.50256 11.9052 4.31403C11.9253 3.77834 11.975 3.55241 12.035 3.40748C12.2254 2.94804 12.5904 2.58303 13.0497 2.39273Z" fill="#29293D"/>
</svg>
